REM DIRINDEX 1\2\5,1\2\6,1\2\7,1\2\8,1\3\9,1\3\10,1\3\11,1\4\12,1\4\13,1\4\14,1\4\15,1\4\16
REM DIRNAME folder01,folder02,folder03,folder04,folder05,folder06,folder07,folder08,folder09,folder10,folder11,folder12,folder13,folder14,folder15,folder16
TITLE ""
FILE "1200_sec03_0621_0629.mp3" MP3
  TRACK 01 AUDIO
    TITLE "0:"
    INDEX 01 00:00:00
  TRACK 02 AUDIO
    TITLE "16:cjc034_06134"
    INDEX 01 00:03:25
  TRACK 03 AUDIO
    TITLE "0:"
    INDEX 01 00:07:58
  TRACK 04 AUDIO
    TITLE "16:cjc034_06135"
    INDEX 01 00:08:58
  TRACK 05 AUDIO
    TITLE "0:"
    INDEX 01 00:12:44
  TRACK 06 AUDIO
    TITLE "12:cjc034_06136"
    INDEX 01 00:13:43
  TRACK 07 AUDIO
    TITLE "0:"
    INDEX 01 00:14:64
  TRACK 08 AUDIO
    TITLE "13:cjc034_06137"
    INDEX 01 00:15:21
  TRACK 09 AUDIO
    TITLE "0:"
    INDEX 01 00:16:10
  TRACK 10 AUDIO
    TITLE "14:cjc034_06138"
    INDEX 01 00:16:44
  TRACK 11 AUDIO
    TITLE "0:"
    INDEX 01 00:17:61
  TRACK 12 AUDIO
    TITLE "15:cjc034_06139"
    INDEX 01 00:18:21
  TRACK 13 AUDIO
    TITLE "0:"
    INDEX 01 00:22:01
  TRACK 14 AUDIO
    TITLE "12:cjc034_06140"
    INDEX 01 00:23:34
  TRACK 15 AUDIO
    TITLE "0:"
    INDEX 01 00:25:07
  TRACK 16 AUDIO
    TITLE "13:cjc034_06141"
    INDEX 01 00:25:41
  TRACK 17 AUDIO
    TITLE "0:"
    INDEX 01 00:27:36
  TRACK 18 AUDIO
    TITLE "14:cjc034_06142"
    INDEX 01 00:27:65
  TRACK 19 AUDIO
    TITLE "0:"
    INDEX 01 00:29:38
  TRACK 20 AUDIO
    TITLE "15:cjc034_06143"
    INDEX 01 00:29:72
  TRACK 21 AUDIO
    TITLE "0:"
    INDEX 01 00:33:17
  TRACK 22 AUDIO
    TITLE "12:cjc034_06144"
    INDEX 01 00:34:51
  TRACK 23 AUDIO
    TITLE "0:"
    INDEX 01 00:35:70
  TRACK 24 AUDIO
    TITLE "13:cjc034_06145"
    INDEX 01 00:36:29
  TRACK 25 AUDIO
    TITLE "0:"
    INDEX 01 00:37:32
  TRACK 26 AUDIO
    TITLE "14:cjc034_06146"
    INDEX 01 00:37:69
  TRACK 27 AUDIO
    TITLE "0:"
    INDEX 01 00:39:13
  TRACK 28 AUDIO
    TITLE "15:cjc034_06147"
    INDEX 01 00:39:47
  TRACK 29 AUDIO
    TITLE "0:"
    INDEX 01 00:42:59
  TRACK 30 AUDIO
    TITLE "12:cjc034_06148"
    INDEX 01 00:44:20
  TRACK 31 AUDIO
    TITLE "0:"
    INDEX 01 00:45:18
  TRACK 32 AUDIO
    TITLE "13:cjc034_06149"
    INDEX 01 00:45:59
  TRACK 33 AUDIO
    TITLE "0:"
    INDEX 01 00:46:49
  TRACK 34 AUDIO
    TITLE "14:cjc034_06150"
    INDEX 01 00:47:07
  TRACK 35 AUDIO
    TITLE "0:"
    INDEX 01 00:47:74
  TRACK 36 AUDIO
    TITLE "15:cjc034_06151"
    INDEX 01 00:48:49
  TRACK 37 AUDIO
    TITLE "0:"
    INDEX 01 00:52:49
  TRACK 38 AUDIO
    TITLE "12:cjc034_06152"
    INDEX 01 00:54:07
  TRACK 39 AUDIO
    TITLE "0:"
    INDEX 01 00:55:16
  TRACK 40 AUDIO
    TITLE "13:cjc034_06153"
    INDEX 01 00:55:51
  TRACK 41 AUDIO
    TITLE "0:"
    INDEX 01 00:56:55
  TRACK 42 AUDIO
    TITLE "14:cjc034_06154"
    INDEX 01 00:57:13
  TRACK 43 AUDIO
    TITLE "0:"
    INDEX 01 00:58:22
  TRACK 44 AUDIO
    TITLE "15:cjc034_06155"
    INDEX 01 00:58:54
  TRACK 45 AUDIO
    TITLE "0:"
    INDEX 01 01:01:62
  TRACK 46 AUDIO
    TITLE "12:cjc034_06156"
    INDEX 01 01:03:20
  TRACK 47 AUDIO
    TITLE "0:"
    INDEX 01 01:04:43
  TRACK 48 AUDIO
    TITLE "13:cjc034_06157"
    INDEX 01 01:05:01
  TRACK 49 AUDIO
    TITLE "0:"
    INDEX 01 01:06:22
  TRACK 50 AUDIO
    TITLE "14:cjc034_06158"
    INDEX 01 01:06:57
  TRACK 51 AUDIO
    TITLE "0:"
    INDEX 01 01:08:07
  TRACK 52 AUDIO
    TITLE "15:cjc034_06159"
    INDEX 01 01:08:38
  TRACK 53 AUDIO
    TITLE "0:"
    INDEX 01 01:12:58
  TRACK 54 AUDIO
    TITLE "12:cjc034_06160"
    INDEX 01 01:14:17
  TRACK 55 AUDIO
    TITLE "0:"
    INDEX 01 01:15:29
  TRACK 56 AUDIO
    TITLE "13:cjc034_06161"
    INDEX 01 01:15:62
  TRACK 57 AUDIO
    TITLE "0:"
    INDEX 01 01:16:67
  TRACK 58 AUDIO
    TITLE "14:cjc034_06162"
    INDEX 01 01:17:28
  TRACK 59 AUDIO
    TITLE "0:"
    INDEX 01 01:18:37
  TRACK 60 AUDIO
    TITLE "15:cjc034_06163"
    INDEX 01 01:18:72
  TRACK 61 AUDIO
    TITLE "0:"
    INDEX 01 01:21:31
  TRACK 62 AUDIO
    TITLE "12:cjc034_06164"
    INDEX 01 01:22:70
  TRACK 63 AUDIO
    TITLE "0:"
    INDEX 01 01:24:26
  TRACK 64 AUDIO
    TITLE "13:cjc034_06165"
    INDEX 01 01:24:59
  TRACK 65 AUDIO
    TITLE "0:"
    INDEX 01 01:25:64
  TRACK 66 AUDIO
    TITLE "14:cjc034_06166"
    INDEX 01 01:26:25
  TRACK 67 AUDIO
    TITLE "0:"
    INDEX 01 01:27:55
  TRACK 68 AUDIO
    TITLE "15:cjc034_06167"
    INDEX 01 01:28:16
  TRACK 69 AUDIO
    TITLE "0:"
    INDEX 01 01:31:47
  TRACK 70 AUDIO
    TITLE "16:cjc034_06168"
    INDEX 01 01:33:05
  TRACK 71 AUDIO
    TITLE "0:"
    INDEX 01 01:38:02
  TRACK 72 AUDIO
    TITLE "12:cjc034_06169"
    INDEX 01 01:39:04
  TRACK 73 AUDIO
    TITLE "0:"
    INDEX 01 01:40:35
  TRACK 74 AUDIO
    TITLE "13:cjc034_06170"
    INDEX 01 01:40:70
  TRACK 75 AUDIO
    TITLE "0:"
    INDEX 01 01:41:61
  TRACK 76 AUDIO
    TITLE "14:cjc034_06171"
    INDEX 01 01:42:20
  TRACK 77 AUDIO
    TITLE "0:"
    INDEX 01 01:43:51
  TRACK 78 AUDIO
    TITLE "15:cjc034_06172"
    INDEX 01 01:44:09
  TRACK 79 AUDIO
    TITLE "0:"
    INDEX 01 01:48:11
